<svg width="16" height="16" viewBox="0 0 16 16" fill="current" xmlns="http://www.w3.org/2000/svg">
<path d="M13.3334 10.0002V11.3335H2.66671V10.0002H1.33337V6.66683H2.66671V5.3335H13.3334V6.66683H14.6667V10.0002H13.3334ZM12 10.0002V6.66683H4.00004V10.0002H12ZM8.66671 3.3335V4.66683H7.33337V3.3335H8.66671ZM6.33337 9.3335C5.80004 9.3335 5.33337 8.86683 5.33337 8.3335C5.33337 7.80016 5.80004 7.3335 6.33337 7.3335C6.86671 7.3335 7.33337 7.80016 7.33337 8.3335C7.33337 8.86683 6.86671 9.3335 6.33337 9.3335ZM9.66671 9.3335C9.13337 9.3335 8.66671 8.86683 8.66671 8.3335C8.66671 7.80016 9.13337 7.3335 9.66671 7.3335C10.2 7.3335 10.6667 7.80016 10.6667 8.3335C10.6667 8.86683 10.2 9.3335 9.66671 9.3335Z" fill="red"/>
</svg>
