<svg width="214" height="86" viewBox="0 0 214 86" fill="none" xmlns="http://www.w3.org/2000/svg">
<path d="M35.2 7H45.2V54.5966H56V63.3698H45.2V79H34.8V63.3698H0V52.9832L35.2 7ZM34.5 20.916L8.9 54.5966H34.8V20.916H34.5Z" fill="#0019FF"/>
<mask id="mask0_2702_17791" style="mask-type:alpha" maskUnits="userSpaceOnUse" x="64" y="0" width="86" height="86">
<path d="M150 0H64V86H150V0Z" fill="white"/>
</mask>
<g mask="url(#mask0_2702_17791)">
<path fill-rule="evenodd" clip-rule="evenodd" d="M76.6132 6.88C76.6132 9.96311 79.0468 12.4778 82.0978 12.608L82.3465 12.6133C79.1801 12.6133 76.6132 15.1802 76.6132 18.3467C76.6132 15.1802 74.0463 12.6133 70.8799 12.6133C73.963 12.6133 76.4777 10.1798 76.6079 7.12871L76.6132 6.88Z" fill="#0019FF"/>
<path fill-rule="evenodd" clip-rule="evenodd" d="M84.64 18.3467C84.64 19.5557 85.5756 20.5462 86.7622 20.6337L86.9333 20.64C85.6668 20.64 84.64 21.6668 84.64 22.9333C84.64 21.6668 83.6133 20.64 82.3467 20.64C83.5557 20.64 84.5462 19.7045 84.6337 18.5178L84.64 18.3467Z" fill="#0019FF"/>
<mask id="mask1_2702_17791" style="mask-type:alpha" maskUnits="userSpaceOnUse" x="122" y="2" width="26" height="26">
<path d="M147.707 2.29333H122.48V27.52H147.707V2.29333Z" fill="white"/>
</mask>
<g mask="url(#mask1_2702_17791)">
<path d="M122.48 50.3387C135.082 50.3387 145.298 40.1224 145.298 27.52C145.298 14.9176 135.082 4.70135 122.48 4.70135C109.877 4.70135 99.6611 14.9176 99.6611 27.52C99.6611 40.1224 109.877 50.3387 122.48 50.3387Z" stroke="#0019FF" stroke-width="2"/>
<path d="M121.495 43.1911C129.605 43.1911 136.18 36.6162 136.18 28.5056C136.18 20.3951 129.605 13.8201 121.495 13.8201C113.384 13.8201 106.809 20.3951 106.809 28.5056C106.809 36.6162 113.384 43.1911 121.495 43.1911Z" stroke="#0019FF" stroke-width="2"/>
</g>
<path fill-rule="evenodd" clip-rule="evenodd" d="M107.052 81.2234L77.7803 81.1346L99.8883 51.8976L113.107 57.4067L107.052 81.2234Z" stroke="#0019FF" stroke-width="2"/>
<path d="M72.6001 81.1961L113.88 81.22" stroke="#0019FF" stroke-width="2" stroke-linecap="square"/>
<path fill-rule="evenodd" clip-rule="evenodd" d="M141.067 57.3215C138.496 63.222 123.348 62.3126 107.232 55.2915C91.1172 48.2696 80.1364 37.7947 82.7073 31.8943C85.2782 25.9946 100.426 26.9032 116.542 33.9251C132.657 40.9462 143.638 51.4211 141.067 57.3215Z" stroke="#0019FF" stroke-width="2"/>
<path fill-rule="evenodd" clip-rule="evenodd" d="M131.745 53.5704C136.444 42.786 131.51 30.2344 120.726 25.5352C109.942 20.8367 97.3902 25.7702 92.6909 36.5545C102.915 46.9566 116.739 53.0417 131.314 53.5549L131.745 53.5704Z" fill="#0019FF" stroke="white" stroke-width="2"/>
<path fill-rule="evenodd" clip-rule="evenodd" d="M118.229 42.6015C118.055 43.002 117.792 43.3404 117.443 43.6167C117.093 43.8936 116.685 44.0941 116.218 44.2189C115.752 44.3437 115.246 44.3859 114.7 44.3437C114.153 44.3015 113.593 44.1556 113.02 43.9054C112.505 43.6812 112.055 43.4534 111.667 43.2212C111.28 42.989 110.932 42.7363 110.621 42.4631C110.31 42.1905 110.029 41.8906 109.777 41.5634C109.525 41.2368 109.278 40.8668 109.034 40.4533L111.312 39.6828C111.631 40.2459 111.986 40.6992 112.378 41.0444C112.768 41.3896 113.231 41.6783 113.765 41.9111C113.983 42.0061 114.2 42.0663 114.418 42.0924C114.636 42.1185 114.838 42.1141 115.024 42.0788C115.21 42.0434 115.375 41.9769 115.517 41.8801C115.659 41.7832 115.765 41.6547 115.835 41.4945C115.909 41.3256 115.94 41.1592 115.929 40.9953C115.917 40.832 115.85 40.6489 115.727 40.4465C115.603 40.2447 115.411 40.01 115.15 39.743C114.89 39.4767 114.548 39.155 114.124 38.7794C113.75 38.4472 113.403 38.1027 113.082 37.7457C112.761 37.3893 112.506 37.0161 112.317 36.6262C112.127 36.2369 112.017 35.8284 111.986 35.4012C111.954 34.9747 112.04 34.5258 112.247 34.0539C112.444 33.6001 112.727 33.2257 113.097 32.9314C113.467 32.6371 113.886 32.431 114.356 32.3124C114.824 32.1938 115.327 32.1615 115.863 32.2143C116.398 32.2677 116.938 32.413 117.482 32.6501C118.392 33.0463 119.112 33.4871 119.642 33.972C120.172 34.4575 120.589 35.0101 120.896 35.6303L118.66 36.3878C118.476 36.0004 118.231 35.6577 117.925 35.3603C117.619 35.0629 117.219 34.8071 116.724 34.5916C116.497 34.4923 116.274 34.432 116.053 34.4103C115.833 34.388 115.632 34.3985 115.449 34.4407C115.266 34.4823 115.102 34.5544 114.959 34.6556C114.814 34.7568 114.709 34.8834 114.643 35.0343C114.569 35.2038 114.542 35.3739 114.561 35.5471C114.58 35.7191 114.655 35.911 114.787 36.1221C114.919 36.3332 115.112 36.571 115.367 36.8355C115.622 37.0999 115.949 37.4091 116.349 37.7637C116.86 38.2088 117.281 38.6354 117.609 39.0433C117.937 39.4506 118.177 39.8461 118.327 40.2298C118.478 40.6129 118.545 40.9997 118.528 41.3896C118.511 41.7789 118.412 42.1831 118.229 42.6015Z" fill="white"/>
</g>
<path d="M193.2 7H203.2V54.5966H214V63.3698H203.2V79H192.8V63.3698H158V52.9832L193.2 7ZM192.5 20.916L166.9 54.5966H192.8V20.916H192.5Z" fill="#0019FF"/>
</svg>
